<svg xmlns="http://www.w3.org/2000/svg" style="display: none">
  <defs>
    <symbol
      id="brand-logo"
      width="48"
      height="10"
      viewBox="0 0 48 10"
      fill="none"
      xmlns="http://www.w3.org/2000/svg"
    >
      <path
        d="M22.6003 4.42725H13.2754V5.91815H22.6003V4.42725Z"
        fill="#F06649"
      />
      <path
        d="M18.2959 1.41826L22.3246 5.15462L18.2959 8.88189L19.4259 9.93644L24.6042 5.15462L19.4259 0.372803L18.2959 1.41826Z"
        fill="#F06649"
      />
      <path
        d="M10.3075 10C9.27574 9.91818 8.3914 9.70909 7.65445 9.36364C6.94698 9.69091 6.11177 9.86364 5.20778 9.86364C2.16172 9.86364 0 7.81818 0 4.92727C0 2.04545 2.16172 0 5.20778 0C8.25384 0 10.4156 2.04545 10.4156 4.92727C10.4156 6.27273 9.94391 7.43636 9.13818 8.29091C9.55087 8.40909 9.99304 8.49091 10.4942 8.53636L10.3075 10ZM5.20778 8.23636C5.51239 8.23636 5.82682 8.2 6.10194 8.13636C5.62047 7.51818 5.29621 6.79091 5.14882 5.9L6.80942 5.62727C6.93716 6.29091 7.20246 6.85455 7.58567 7.29091C8.14575 6.71818 8.47001 5.89091 8.47001 4.91818C8.47001 2.95455 7.17298 1.59091 5.19795 1.59091C3.22293 1.59091 1.9259 2.95455 1.9259 4.91818C1.94555 6.88182 3.24258 8.23636 5.20778 8.23636Z"
        fill="white"
      />
      <path
        d="M33.4675 0V7.3L29.2227 0H26.5205V10H28.5152V2.35455L32.9762 10H35.4622V0H33.4675Z"
        fill="white"
      />
      <path
        d="M39.3232 5.84546V0H41.3474V5.8C41.3474 7.36364 42.2416 8.31818 43.6565 8.31818C45.0714 8.31818 45.9754 7.36364 45.9754 5.8V0H47.9996V5.84546C47.9996 8.40909 46.339 10 43.6663 10C40.9838 10 39.3232 8.40909 39.3232 5.84546Z"
        fill="white"
      />
    </symbol>
    <symbol
      id="users"
      width="22"
      height="20"
      viewBox="0 0 22 20"
      fill="none"
      xmlns="http://www.w3.org/2000/svg"
    >
      <path
        d="M17.0008 13.8369C18.4567 14.5683 19.7049 15.742 20.6161 17.2096C20.7965 17.5003 20.8867 17.6456 20.9179 17.8468C20.9813 18.2558 20.7016 18.7585 20.3207 18.9204C20.1333 19 19.9225 19 19.5008 19M15.0008 9.53224C16.4825 8.79589 17.5008 7.26686 17.5008 5.5C17.5008 3.73314 16.4825 2.20411 15.0008 1.46776M13.0008 5.5C13.0008 7.98528 10.9861 10 8.50081 10C6.01553 10 4.00081 7.98528 4.00081 5.5C4.00081 3.01472 6.01553 1 8.50081 1C10.9861 1 13.0008 3.01472 13.0008 5.5ZM1.56004 16.9383C3.15435 14.5446 5.67019 13 8.50081 13C11.3314 13 13.8473 14.5446 15.4416 16.9383C15.7909 17.4628 15.9655 17.725 15.9454 18.0599C15.9297 18.3207 15.7588 18.64 15.5504 18.7976C15.2827 19 14.9146 19 14.1785 19H2.82317C2.08698 19 1.71889 19 1.45125 18.7976C1.24286 18.64 1.0719 18.3207 1.05625 18.0599C1.03614 17.725 1.21078 17.4628 1.56004 16.9383Z"
        stroke="white"
        stroke-width="1.5"
        stroke-linecap="round"
        stroke-linejoin="round"
      />
    </symbol>
    <symbol
      id="roles"
      width="22"
      height="22"
      viewBox="0 0 22 22"
      fill="none"
      xmlns="http://www.w3.org/2000/svg"
    >
      <path
        d="M11 7V11M11 15H11.01M21 11C21 16.5228 16.5228 21 11 21C5.47715 21 1 16.5228 1 11C1 5.47715 5.47715 1 11 1C16.5228 1 21 5.47715 21 11Z"
        stroke="white"
        stroke-width="1.7"
        stroke-linecap="round"
        stroke-linejoin="round"
      />
    </symbol>

    <symbol
      id="settings"
      width="22"
      height="22"
      viewBox="0 0 22 22"
      fill="none"
      xmlns="http://www.w3.org/2000/svg"
    >
      <path
        d="M10.9985 14C12.6554 14 13.9985 12.6569 13.9985 11C13.9985 9.34315 12.6554 8 10.9985 8C9.34164 8 7.9985 9.34315 7.9985 11C7.9985 12.6569 9.34164 14 10.9985 14Z"
        stroke="white"
        stroke-width="1.5"
      />
      <path
        d="M12.7635 1.152C12.3965 1 11.9305 1 10.9985 1C10.0665 1 9.6005 1 9.2335 1.152C8.99068 1.25251 8.77005 1.3999 8.58422 1.58572C8.39839 1.77155 8.25101 1.99218 8.1505 2.235C8.0585 2.458 8.0215 2.719 8.0075 3.098C8.00127 3.37199 7.9255 3.6399 7.78731 3.87657C7.64912 4.11324 7.45304 4.31091 7.2175 4.451C6.97839 4.58504 6.70914 4.6561 6.43503 4.6575C6.16092 4.6589 5.89096 4.59059 5.6505 4.459C5.3145 4.281 5.0715 4.183 4.8305 4.151C4.30482 4.08187 3.7732 4.22431 3.3525 4.547C3.0385 4.79 2.8045 5.193 2.3385 6C1.8725 6.807 1.6385 7.21 1.5875 7.605C1.55313 7.86545 1.57042 8.13012 1.63836 8.38389C1.70631 8.63767 1.82359 8.87556 1.9835 9.084C2.1315 9.276 2.3385 9.437 2.6595 9.639C3.1325 9.936 3.4365 10.442 3.4365 11C3.4365 11.558 3.1325 12.064 2.6595 12.36C2.3385 12.563 2.1305 12.724 1.9835 12.916C1.82359 13.1244 1.70631 13.3623 1.63836 13.6161C1.57042 13.8699 1.55313 14.1345 1.5875 14.395C1.6395 14.789 1.8725 15.193 2.3375 16C2.8045 16.807 3.0375 17.21 3.3525 17.453C3.56093 17.6129 3.79883 17.7302 4.0526 17.7981C4.30637 17.8661 4.57105 17.8834 4.8315 17.849C5.0715 17.817 5.3145 17.719 5.6505 17.541C5.89096 17.4094 6.16092 17.3411 6.43503 17.3425C6.70914 17.3439 6.97839 17.415 7.2175 17.549C7.7005 17.829 7.9875 18.344 8.0075 18.902C8.0215 19.282 8.0575 19.542 8.1505 19.765C8.25101 20.0078 8.39839 20.2284 8.58422 20.4143C8.77005 20.6001 8.99068 20.7475 9.2335 20.848C9.6005 21 10.0665 21 10.9985 21C11.9305 21 12.3965 21 12.7635 20.848C13.0063 20.7475 13.2269 20.6001 13.4128 20.4143C13.5986 20.2284 13.746 20.0078 13.8465 19.765C13.9385 19.542 13.9755 19.282 13.9895 18.902C14.0095 18.344 14.2965 17.828 14.7795 17.549C15.0186 17.415 15.2879 17.3439 15.562 17.3425C15.8361 17.3411 16.106 17.4094 16.3465 17.541C16.6825 17.719 16.9255 17.817 17.1655 17.849C17.4259 17.8834 17.6906 17.8661 17.9444 17.7981C18.1982 17.7302 18.4361 17.6129 18.6445 17.453C18.9595 17.211 19.1925 16.807 19.6585 16C20.1245 15.193 20.3585 14.79 20.4095 14.395C20.4439 14.1345 20.4266 13.8699 20.3586 13.6161C20.2907 13.3623 20.1734 13.1244 20.0135 12.916C19.8655 12.724 19.6585 12.563 19.3375 12.361C19.1032 12.2186 18.909 12.019 18.7731 11.7809C18.6372 11.5428 18.564 11.2741 18.5605 11C18.5605 10.442 18.8645 9.936 19.3375 9.64C19.6585 9.437 19.8665 9.276 20.0135 9.084C20.1734 8.87556 20.2907 8.63767 20.3586 8.38389C20.4266 8.13012 20.4439 7.86545 20.4095 7.605C20.3575 7.211 20.1245 6.807 19.6595 6C19.1925 5.193 18.9595 4.79 18.6445 4.547C18.4361 4.38709 18.1982 4.26981 17.9444 4.20187C17.6906 4.13392 17.4259 4.11664 17.1655 4.151C16.9255 4.183 16.6825 4.281 16.3455 4.459C16.1052 4.59042 15.8354 4.65862 15.5615 4.65722C15.2875 4.65582 15.0185 4.58486 14.7795 4.451C14.5439 4.31091 14.3479 4.11324 14.2097 3.87657C14.0715 3.6399 13.9957 3.37199 13.9895 3.098C13.9755 2.718 13.9395 2.458 13.8465 2.235C13.746 1.99218 13.5986 1.77155 13.4128 1.58572C13.2269 1.3999 13.0063 1.25251 12.7635 1.152Z"
        stroke="white"
        stroke-width="1.5"
      />
    </symbol>
    <symbol
      id="reports"
      width="20"
      height="24"
      viewBox="0 0 20 24"
      fill="none"
      xmlns="http://www.w3.org/2000/svg"
    >
      <path
        d="M12.2318 1.13817V5.74626C12.2318 6.37108 12.2318 6.6835 12.3546 6.91781C12.4661 7.1298 12.6335 7.29716 12.8455 7.40874C13.0798 7.53147 13.3922 7.53147 14.017 7.53147H18.6251M18.9264 9.75184V17.8076C18.9264 19.6821 18.9264 20.6193 18.5582 21.3334C18.2346 21.9583 17.7214 22.4715 17.0965 22.7951C16.3824 23.1633 15.4452 23.1633 13.5707 23.1633H6.42987C4.55539 23.1633 3.61815 23.1633 2.90407 22.7951C2.27924 22.4715 1.76599 21.9583 1.44242 21.3334C1.07422 20.6193 1.07422 19.6821 1.07422 17.8076V6.19256C1.07422 4.31809 1.07422 3.38085 1.44242 2.66676C1.76599 2.04194 2.27924 1.52869 2.90407 1.20511C3.61815 0.836914 4.55539 0.836914 6.42987 0.836914H10.0115C10.826 0.836914 11.2388 0.836914 11.6293 0.926175C11.9752 1.00428 12.2988 1.14933 12.6 1.32785C12.9347 1.53984 13.2248 1.82994 13.805 2.39898L17.3643 5.95825C17.9445 6.53845 18.2346 6.82855 18.4354 7.16327C18.614 7.46453 18.759 7.7881 18.8371 8.13398C18.9264 8.5245 18.9264 8.92617 18.9264 9.75184Z"
        stroke="white"
        stroke-width="1.5"
        stroke-linecap="round"
        stroke-linejoin="round"
      />
      <path
        d="M4.58984 18.6558L8.22722 14.6279L10.8046 16.7813L15.4016 12.0059"
        stroke="white"
        stroke-width="1.5"
        stroke-linecap="round"
        stroke-linejoin="round"
      />
    </symbol>
    <symbol
      id="network-manager"
      width="22"
      height="19"
      viewBox="0 0 22 19"
      fill="none"
      xmlns="http://www.w3.org/2000/svg"
    >
      <path
        d="M20.75 8.5H11.75V6.25H12.5C12.8978 6.25 13.2794 6.09196 13.5607 5.81066C13.842 5.52936 14 5.14782 14 4.75V1.75C14 1.35218 13.842 0.970644 13.5607 0.68934C13.2794 0.408035 12.8978 0.25 12.5 0.25H9.5C9.10218 0.25 8.72064 0.408035 8.43934 0.68934C8.15804 0.970644 8 1.35218 8 1.75V4.75C8 5.14782 8.15804 5.52936 8.43934 5.81066C8.72064 6.09196 9.10218 6.25 9.5 6.25H10.25V8.5H1.25C1.05109 8.5 0.860322 8.57902 0.71967 8.71967C0.579018 8.86032 0.5 9.05109 0.5 9.25C0.5 9.44891 0.579018 9.63968 0.71967 9.78033C0.860322 9.92098 1.05109 10 1.25 10H4.25V13H3.5C3.10218 13 2.72064 13.158 2.43934 13.4393C2.15804 13.7206 2 14.1022 2 14.5V17.5C2 17.8978 2.15804 18.2794 2.43934 18.5607C2.72064 18.842 3.10218 19 3.5 19H6.5C6.89782 19 7.27936 18.842 7.56066 18.5607C7.84196 18.2794 8 17.8978 8 17.5V14.5C8 14.1022 7.84196 13.7206 7.56066 13.4393C7.27936 13.158 6.89782 13 6.5 13H5.75V10H16.25V13H15.5C15.1022 13 14.7206 13.158 14.4393 13.4393C14.158 13.7206 14 14.1022 14 14.5V17.5C14 17.8978 14.158 18.2794 14.4393 18.5607C14.7206 18.842 15.1022 19 15.5 19H18.5C18.8978 19 19.2794 18.842 19.5607 18.5607C19.842 18.2794 20 17.8978 20 17.5V14.5C20 14.1022 19.842 13.7206 19.5607 13.4393C19.2794 13.158 18.8978 13 18.5 13H17.75V10H20.75C20.9489 10 21.1397 9.92098 21.2803 9.78033C21.421 9.63968 21.5 9.44891 21.5 9.25C21.5 9.05109 21.421 8.86032 21.2803 8.71967C21.1397 8.57902 20.9489 8.5 20.75 8.5ZM9.5 1.75H12.5V4.75H9.5V1.75ZM6.5 17.5H3.5V14.5H6.5V17.5ZM18.5 17.5H15.5V14.5H18.5V17.5Z"
        fill="white"
      />
    </symbol>
    <symbol
      id="logs"
      width="18"
      height="22"
      viewBox="0 0 18 22"
      fill="none"
      xmlns="http://www.w3.org/2000/svg"
    >
      <path
        d="M14.0902 1H3.91016C2.2533 1 0.910156 2.34315 0.910156 4V18C0.910156 19.6569 2.2533 21 3.91016 21H14.0902C15.747 21 17.0902 19.6569 17.0902 18V4C17.0902 2.34315 15.747 1 14.0902 1Z"
        stroke="white"
        stroke-width="1.5"
        stroke-linecap="round"
        stroke-linejoin="round"
      />
      <path
        d="M13.9595 7.45996H6.76953"
        stroke="white"
        stroke-width="1.5"
        stroke-linecap="round"
        stroke-linejoin="round"
      />
      <path
        d="M4.04125 8.2202C4.46099 8.2202 4.80125 7.87993 4.80125 7.4602C4.80125 7.04046 4.46099 6.7002 4.04125 6.7002C3.62151 6.7002 3.28125 7.04046 3.28125 7.4602C3.28125 7.87993 3.62151 8.2202 4.04125 8.2202Z"
        fill="white"
      />
      <path
        d="M13.9595 11.6699H6.76953"
        stroke="white"
        stroke-width="1.5"
        stroke-linecap="round"
        stroke-linejoin="round"
      />
      <path
        d="M4.04125 12.4302C4.46099 12.4302 4.80125 12.0899 4.80125 11.6702C4.80125 11.2504 4.46099 10.9102 4.04125 10.9102C3.62151 10.9102 3.28125 11.2504 3.28125 11.6702C3.28125 12.0899 3.62151 12.4302 4.04125 12.4302Z"
        fill="white"
      />
      <path
        d="M13.9595 15.8701H6.76953"
        stroke="white"
        stroke-width="1.5"
        stroke-linecap="round"
        stroke-linejoin="round"
      />
      <path
        d="M4.04125 16.6304C4.46099 16.6304 4.80125 16.2901 4.80125 15.8704C4.80125 15.4506 4.46099 15.1104 4.04125 15.1104C3.62151 15.1104 3.28125 15.4506 3.28125 15.8704C3.28125 16.2901 3.62151 16.6304 4.04125 16.6304Z"
        fill="white"
      />
    </symbol>
    <symbol
      id="inventory"
      width="20"
      height="22"
      viewBox="0 0 20 22"
      fill="none"
      xmlns="http://www.w3.org/2000/svg"
    >
      <path
        d="M12 3C12 3.53043 11.7893 4.03914 11.4142 4.41421C11.0391 4.78929 10.5304 5 10 5C9.46957 5 8.96086 4.78929 8.58579 4.41421C8.21071 4.03914 8 3.53043 8 3C8 2.46957 8.21071 1.96086 8.58579 1.58579C8.96086 1.21071 9.46957 1 10 1C10.5304 1 11.0391 1.21071 11.4142 1.58579C11.7893 1.96086 12 2.46957 12 3ZM12 19C12 19.5304 11.7893 20.0391 11.4142 20.4142C11.0391 20.7893 10.5304 21 10 21C9.46957 21 8.96086 20.7893 8.58579 20.4142C8.21071 20.0391 8 19.5304 8 19C8 18.4696 8.21071 17.9609 8.58579 17.5858C8.96086 17.2107 9.46957 17 10 17C10.5304 17 11.0391 17.2107 11.4142 17.5858C11.7893 17.9609 12 18.4696 12 19ZM5 7C5 7.53043 4.78929 8.03914 4.41421 8.41421C4.03914 8.78929 3.53043 9 3 9C2.46957 9 1.96086 8.78929 1.58579 8.41421C1.21071 8.03914 1 7.53043 1 7C1 6.46957 1.21071 5.96086 1.58579 5.58579C1.96086 5.21071 2.46957 5 3 5C3.53043 5 4.03914 5.21071 4.41421 5.58579C4.78929 5.96086 5 6.46957 5 7ZM5 15C5 15.5304 4.78929 16.0391 4.41421 16.4142C4.03914 16.7893 3.53043 17 3 17C2.46957 17 1.96086 16.7893 1.58579 16.4142C1.21071 16.0391 1 15.5304 1 15C1 14.4696 1.21071 13.9609 1.58579 13.5858C1.96086 13.2107 2.46957 13 3 13C3.53043 13 4.03914 13.2107 4.41421 13.5858C4.78929 13.9609 5 14.4696 5 15ZM19 7C19 7.53043 18.7893 8.03914 18.4142 8.41421C18.0391 8.78929 17.5304 9 17 9C16.4696 9 15.9609 8.78929 15.5858 8.41421C15.2107 8.03914 15 7.53043 15 7C15 6.46957 15.2107 5.96086 15.5858 5.58579C15.9609 5.21071 16.4696 5 17 5C17.5304 5 18.0391 5.21071 18.4142 5.58579C18.7893 5.96086 19 6.46957 19 7ZM19 15C19 15.5304 18.7893 16.0391 18.4142 16.4142C18.0391 16.7893 17.5304 17 17 17C16.4696 17 15.9609 16.7893 15.5858 16.4142C15.2107 16.0391 15 15.5304 15 15C15 14.4696 15.2107 13.9609 15.5858 13.5858C15.9609 13.2107 16.4696 13 17 13C17.5304 13 18.0391 13.2107 18.4142 13.5858C18.7893 13.9609 19 14.4696 19 15Z"
        stroke="white"
        stroke-width="1.33333"
      />
    </symbol>
    <symbol
      id="incidents"
      width="24"
      height="24"
      viewBox="0 0 24 24"
      fill="none"
      xmlns="http://www.w3.org/2000/svg"
    >
      <path
        d="M12 8V12M12 16H12.01M22 12C22 17.5228 17.5228 22 12 22C6.47715 22 2 17.5228 2 12C2 6.47715 6.47715 2 12 2C17.5228 2 22 6.47715 22 12Z"
        stroke="white"
        stroke-width="1.7"
        stroke-linecap="round"
        stroke-linejoin="round"
      />
    </symbol>
    <symbol
      id="help-support"
      width="22"
      height="22"
      viewBox="0 0 22 22"
      fill="none"
      xmlns="http://www.w3.org/2000/svg"
    >
      <path
        d="M8.09 8C8.3251 7.33167 8.78915 6.76811 9.39995 6.40913C10.0108 6.05016 10.7289 5.91894 11.4272 6.03871C12.1255 6.15849 12.7588 6.52152 13.2151 7.06353C13.6713 7.60553 13.9211 8.29152 13.92 9C13.92 11 10.92 12 10.92 12M11 16H11.01M21 11C21 16.5228 16.5228 21 11 21C5.47715 21 1 16.5228 1 11C1 5.47715 5.47715 1 11 1C16.5228 1 21 5.47715 21 11Z"
        stroke="white"
        stroke-width="1.5"
        stroke-linecap="round"
        stroke-linejoin="round"
      />
    </symbol>
    <symbol
      id="search"
      width="18"
      height="18"
      viewBox="0 0 18 18"
      fill="none"
      xmlns="http://www.w3.org/2000/svg"
    >
      <path
        d="M17 17L13 13M15 8C15 11.866 11.866 15 8 15C4.13401 15 1 11.866 1 8C1 4.13401 4.13401 1 8 1C11.866 1 15 4.13401 15 8Z"
        stroke="#5B5D86"
        stroke-width="1.5"
        stroke-linecap="round"
      />
    </symbol>
    <symbol
      id="add"
      width="18"
      height="18"
      viewBox="0 0 18 18"
      fill="var(--currentColor)"
      xmlns="http://www.w3.org/2000/svg"
    >
      <path
        fill-rule="evenodd"
        clip-rule="evenodd"
        d="M0.667969 8.99935C0.667969 4.39685 4.3988 0.666016 9.0013 0.666016C13.6038 0.666016 17.3346 4.39685 17.3346 8.99935C17.3346 13.6018 13.6038 17.3327 9.0013 17.3327C4.3988 17.3327 0.667969 13.6018 0.667969 8.99935ZM9.0013 2.33268C7.23319 2.33268 5.5375 3.03506 4.28726 4.2853C3.03701 5.53555 2.33464 7.23124 2.33464 8.99935C2.33464 10.7675 3.03701 12.4632 4.28726 13.7134C5.5375 14.9636 7.23319 15.666 9.0013 15.666C10.7694 15.666 12.4651 14.9636 13.7153 13.7134C14.9656 12.4632 15.668 10.7675 15.668 8.99935C15.668 7.23124 14.9656 5.53555 13.7153 4.2853C12.4651 3.03506 10.7694 2.33268 9.0013 2.33268Z"
        fill="inherit"
      />
      <path
        fill-rule="evenodd"
        clip-rule="evenodd"
        d="M9.83463 4.83268C9.83463 4.61167 9.74684 4.39971 9.59056 4.24343C9.43428 4.08715 9.22232 3.99935 9.0013 3.99935C8.78029 3.99935 8.56833 4.08715 8.41205 4.24343C8.25577 4.39971 8.16797 4.61167 8.16797 4.83268V8.16602H4.83464C4.61362 8.16602 4.40166 8.25381 4.24538 8.41009C4.0891 8.56637 4.0013 8.77833 4.0013 8.99935C4.0013 9.22036 4.0891 9.43232 4.24538 9.5886C4.40166 9.74488 4.61362 9.83268 4.83464 9.83268H8.16797V13.166C8.16797 13.387 8.25577 13.599 8.41205 13.7553C8.56833 13.9116 8.78029 13.9993 9.0013 13.9993C9.22232 13.9993 9.43428 13.9116 9.59056 13.7553C9.74684 13.599 9.83463 13.387 9.83463 13.166V9.83268H13.168C13.389 9.83268 13.6009 9.74488 13.7572 9.5886C13.9135 9.43232 14.0013 9.22036 14.0013 8.99935C14.0013 8.77833 13.9135 8.56637 13.7572 8.41009C13.6009 8.25381 13.389 8.16602 13.168 8.16602H9.83463V4.83268Z"
        fill="inherit"
      />
    </symbol>
    <symbol
      id="filter_list"
      width="18"
      height="11"
      viewBox="0 0 18 11"
      fill="none"
      xmlns="http://www.w3.org/2000/svg"
    >
      <path
        d="M0.875 0.78125C0.875 0.35 1.225 0 1.65625 0H16.3438C16.551 0 16.7497 0.08231 16.8962 0.228823C17.0427 0.375336 17.125 0.57405 17.125 0.78125C17.125 0.98845 17.0427 1.18716 16.8962 1.33368C16.7497 1.48019 16.551 1.5625 16.3438 1.5625H1.65625C1.225 1.5625 0.875 1.2125 0.875 0.78125ZM3.375 5.15625C3.375 4.725 3.725 4.375 4.15625 4.375H13.8438C14.051 4.375 14.2497 4.45731 14.3962 4.60382C14.5427 4.75034 14.625 4.94905 14.625 5.15625C14.625 5.36345 14.5427 5.56216 14.3962 5.70868C14.2497 5.85519 14.051 5.9375 13.8438 5.9375H4.15625C3.725 5.9375 3.375 5.5875 3.375 5.15625ZM6.65625 8.75C6.44905 8.75 6.25034 8.83231 6.10382 8.97882C5.95731 9.12533 5.875 9.32405 5.875 9.53125C5.875 9.73845 5.95731 9.93717 6.10382 10.0837C6.25034 10.2302 6.44905 10.3125 6.65625 10.3125H11.3438C11.551 10.3125 11.7497 10.2302 11.8962 10.0837C12.0427 9.93717 12.125 9.73845 12.125 9.53125C12.125 9.32405 12.0427 9.12533 11.8962 8.97882C11.7497 8.83231 11.551 8.75 11.3438 8.75H6.65625Z"
        fill="#5B5D86"
      />
    </symbol>
    <symbol
      id="download"
      width="14"
      height="17"
      viewBox="0 0 14 17"
      fill="none"
      xmlns="http://www.w3.org/2000/svg"
    >
      <path
        d="M1.0625 15.5625H12.3125M1.6875 7.4375L6.6875 11.8125M6.6875 11.8125L11.6875 7.4375M6.6875 11.8125V1.1875"
        stroke="#5B5D86"
        stroke-width="1.5"
        stroke-linecap="round"
        stroke-linejoin="round"
      />
    </symbol>
    <symbol
      id="more_vert"
      width="4"
      height="15"
      viewBox="0 0 4 15"
      fill="none"
      xmlns="http://www.w3.org/2000/svg"
    >
      <path
        d="M1.99997 14.9368C1.58749 14.9368 1.23438 14.7899 0.940625 14.4962C0.646875 14.2024 0.5 13.8493 0.5 13.4368C0.5 13.0243 0.646875 12.6712 0.940625 12.3775C1.23438 12.0837 1.58749 11.9369 1.99997 11.9369C2.41246 11.9369 2.76558 12.0837 3.05933 12.3775C3.35308 12.6712 3.49995 13.0243 3.49995 13.4368C3.49995 13.8493 3.35308 14.2024 3.05933 14.4962C2.76558 14.7899 2.41246 14.9368 1.99997 14.9368ZM1.99997 9.16759C1.58749 9.16759 1.23438 9.02071 0.940625 8.72696C0.646875 8.43321 0.5 8.0801 0.5 7.66761C0.5 7.25513 0.646875 6.90201 0.940625 6.60826C1.23438 6.31451 1.58749 6.16764 1.99997 6.16764C2.41246 6.16764 2.76558 6.31451 3.05933 6.60826C3.35308 6.90201 3.49995 7.25513 3.49995 7.66761C3.49995 8.0801 3.35308 8.43321 3.05933 8.72696C2.76558 9.02071 2.41246 9.16759 1.99997 9.16759ZM1.99997 3.39836C1.58749 3.39836 1.23438 3.25149 0.940625 2.95774C0.646875 2.664 0.5 2.31089 0.5 1.89839C0.5 1.48591 0.646875 1.13279 0.940625 0.839038C1.23438 0.545305 1.58749 0.398438 1.99997 0.398438C2.41246 0.398438 2.76558 0.545305 3.05933 0.839038C3.35308 1.13279 3.49995 1.48591 3.49995 1.89839C3.49995 2.31089 3.35308 2.664 3.05933 2.95774C2.76558 3.25149 2.41246 3.39836 1.99997 3.39836Z"
        fill="#6C6C6C"
      />
    </symbol>
    <symbol
      id="blacklist"
      width="19"
      height="19"
      viewBox="0 0 19 19"
      fill="none"
      xmlns="http://www.w3.org/2000/svg"
    >
      <path
        d="M10 15.666C10.7083 15.666 11.3889 15.5584 12.0417 15.3431C12.6944 15.1278 13.3056 14.8188 13.875 14.416C13.3056 14.0132 12.6944 13.7042 12.0417 13.4889C11.3889 13.2737 10.7083 13.166 10 13.166C9.29167 13.166 8.61111 13.2737 7.95833 13.4889C7.30556 13.7042 6.69444 14.0132 6.125 14.416C6.69444 14.8188 7.30556 15.1278 7.95833 15.3431C8.61111 15.5584 9.29167 15.666 10 15.666ZM12.2083 8.83268L11.0208 7.64518C11.0903 7.53407 11.1458 7.41602 11.1875 7.29102C11.2292 7.16602 11.25 7.04102 11.25 6.91602C11.25 6.56879 11.1285 6.27365 10.8854 6.0306C10.6424 5.78754 10.3472 5.66602 10 5.66602C9.875 5.66602 9.75 5.68685 9.625 5.72852C9.5 5.77018 9.38194 5.82574 9.27083 5.89518L8.08333 4.70768C8.34722 4.47157 8.64236 4.29449 8.96875 4.17643C9.29514 4.05838 9.63889 3.99935 10 3.99935C10.8056 3.99935 11.4931 4.28407 12.0625 4.85352C12.6319 5.42296 12.9167 6.11046 12.9167 6.91602C12.9167 7.27713 12.8576 7.62088 12.7396 7.94727C12.6215 8.27366 12.4444 8.56879 12.2083 8.83268ZM16.9583 13.5827L15.75 12.3743C16.0556 11.8605 16.2847 11.3188 16.4375 10.7493C16.5903 10.1799 16.6667 9.59657 16.6667 8.99935C16.6667 7.13824 16.0208 5.56185 14.7292 4.27018C13.4375 2.97852 11.8611 2.33268 10 2.33268C9.40278 2.33268 8.81944 2.40907 8.25 2.56185C7.68056 2.71463 7.13889 2.94379 6.625 3.24935L5.41667 2.04102C6.09722 1.59657 6.82639 1.25629 7.60417 1.02018C8.38194 0.784071 9.18056 0.666016 10 0.666016C11.1528 0.666016 12.2361 0.884766 13.25 1.32227C14.2639 1.75977 15.1458 2.35352 15.8958 3.10352C16.6458 3.85352 17.2396 4.73546 17.6771 5.74935C18.1146 6.76324 18.3333 7.84657 18.3333 8.99935C18.3333 9.81879 18.2153 10.6174 17.9792 11.3952C17.7431 12.173 17.4028 12.9021 16.9583 13.5827ZM10 17.3327C8.84722 17.3327 7.76389 17.1139 6.75 16.6764C5.73611 16.2389 4.85417 15.6452 4.10417 14.8952C3.35417 14.1452 2.76042 13.2632 2.32292 12.2493C1.88542 11.2355 1.66667 10.1521 1.66667 8.99935C1.66667 8.1799 1.78125 7.38129 2.01042 6.60352C2.23958 5.82574 2.57639 5.08963 3.02083 4.39518L0.5625 1.91602L1.75 0.728516L18.25 17.2285L17.0625 18.416L4.25 5.62435C3.94444 6.13824 3.71528 6.6799 3.5625 7.24935C3.40972 7.81879 3.33333 8.40213 3.33333 8.99935C3.33333 9.79102 3.46528 10.548 3.72917 11.2702C3.99306 11.9924 4.375 12.6521 4.875 13.2493C5.625 12.6799 6.43403 12.2459 7.30208 11.9473C8.17014 11.6487 9.06944 11.4993 10 11.4993C10.5278 11.4993 11.0556 11.5549 11.5833 11.666C12.1111 11.7771 12.625 11.9299 13.125 12.1243L15.8958 14.8952C15.1042 15.6868 14.2014 16.291 13.1875 16.7077C12.1736 17.1243 11.1111 17.3327 10 17.3327Z"
        fill="#5B5D86"
      />
    </symbol>

    <symbol
      id="block"
      width="16"
      height="16"
      viewBox="0 0 16 16"
      fill="none"
      xmlns="http://www.w3.org/2000/svg"
    >
      <path
        fill-rule="evenodd"
        clip-rule="evenodd"
        d="M2.69671 13.3034C3.39316 13.9998 4.21996 14.5523 5.1299 14.9292C6.03985 15.3061 7.01513 15.5001 8.00005 15.5001C8.98497 15.5001 9.96024 15.3061 10.8702 14.9292C11.7801 14.5523 12.6069 13.9998 13.3034 13.3034C13.9998 12.6069 14.5523 11.7801 14.9292 10.8702C15.3061 9.96024 15.5001 8.98497 15.5001 8.00005C15.5001 7.01513 15.3061 6.03985 14.9292 5.1299C14.5523 4.21996 13.9998 3.39316 13.3034 2.69671C11.8968 1.29018 9.98918 0.5 8.00005 0.5C6.01091 0.5 4.10324 1.29018 2.69671 2.69671C1.29018 4.10324 0.5 6.01091 0.5 8.00005C0.5 9.98918 1.29018 11.8968 2.69671 13.3034ZM4.50588 12.6725C5.62942 13.5134 7.01841 13.9212 8.4182 13.821C9.818 13.7208 11.1348 13.1194 12.1271 12.1271C13.1194 11.1348 13.7208 9.818 13.821 8.4182C13.9212 7.01841 13.5134 5.62942 12.6725 4.50588L10.3567 6.82171C10.1995 6.97351 9.98904 7.05751 9.77055 7.05561C9.55205 7.05371 9.34304 6.96607 9.18853 6.81156C9.03402 6.65705 8.94638 6.44804 8.94448 6.22955C8.94258 6.01105 9.02658 5.80055 9.17838 5.64338L11.4934 3.32755C10.3696 2.48889 8.98138 2.08297 7.5828 2.18408C6.18423 2.28519 4.86883 2.88656 3.87736 3.87814C2.88589 4.86971 2.28465 6.18517 2.18368 7.58375C2.08272 8.98234 2.48878 10.3705 3.32755 11.4942L5.64338 9.17838C5.80055 9.02658 6.01105 8.94258 6.22955 8.94448C6.44804 8.94638 6.65705 9.03402 6.81156 9.18853C6.96607 9.34304 7.05371 9.55205 7.05561 9.77055C7.05751 9.98904 6.97351 10.1995 6.82171 10.3567L4.50588 12.6725Z"
        fill="#5B5D86"
      />
    </symbol>

    <symbol
      id="delete"
      width="16"
      height="16"
      viewBox="0 0 16 16"
      fill="none"
      xmlns="http://www.w3.org/2000/svg"
    >
      <path
        d="M5.03125 1.59375H4.875C4.96094 1.59375 5.03125 1.52344 5.03125 1.4375V1.59375ZM5.03125 1.59375H10.9688V1.4375C10.9688 1.52344 11.0391 1.59375 11.125 1.59375H10.9688V3H12.375V1.4375C12.375 0.748047 11.8145 0.1875 11.125 0.1875H4.875C4.18555 0.1875 3.625 0.748047 3.625 1.4375V3H5.03125V1.59375ZM14.875 3H1.125C0.779297 3 0.5 3.2793 0.5 3.625V4.25C0.5 4.33594 0.570312 4.40625 0.65625 4.40625H1.83594L2.31836 14.6211C2.34961 15.2871 2.90039 15.8125 3.56641 15.8125H12.4336C13.1016 15.8125 13.6504 15.2891 13.6816 14.6211L14.1641 4.40625H15.3438C15.4297 4.40625 15.5 4.33594 15.5 4.25V3.625C15.5 3.2793 15.2207 3 14.875 3ZM12.2832 14.4062H3.7168L3.24414 4.40625H12.7559L12.2832 14.4062Z"
        fill="#5B5D86"
      />
    </symbol>

    <symbol
      id="remove-person"
      width="18"
      height="18"
      viewBox="0 0 18 18"
      fill="none"
      xmlns="http://www.w3.org/2000/svg"
    >
      <path
        fill-rule="evenodd"
        clip-rule="evenodd"
        d="M11.3333 10.666C12.4384 10.666 13.4982 11.105 14.2796 11.8864C15.061 12.6678 15.5 13.7276 15.5 14.8327V16.4993C15.5 16.7204 15.4122 16.9323 15.2559 17.0886C15.0996 17.2449 14.8877 17.3327 14.6667 17.3327C14.4457 17.3327 14.2337 17.2449 14.0774 17.0886C13.9211 16.9323 13.8333 16.7204 13.8333 16.4993V14.8327C13.8333 14.1696 13.5699 13.5338 13.1011 13.0649C12.6323 12.5961 11.9964 12.3327 11.3333 12.3327H4.66667C4.00363 12.3327 3.36774 12.5961 2.8989 13.0649C2.43006 13.5338 2.16667 14.1696 2.16667 14.8327V16.4993C2.16667 16.7204 2.07887 16.9323 1.92259 17.0886C1.76631 17.2449 1.55435 17.3327 1.33333 17.3327C1.11232 17.3327 0.900358 17.2449 0.744078 17.0886C0.587797 16.9323 0.5 16.7204 0.5 16.4993V14.8327C0.5 13.7276 0.938987 12.6678 1.72039 11.8864C2.50179 11.105 3.5616 10.666 4.66667 10.666H11.3333ZM8 0.666016C9.10507 0.666016 10.1649 1.105 10.9463 1.8864C11.7277 2.66781 12.1667 3.72761 12.1667 4.83268C12.1667 5.93775 11.7277 6.99756 10.9463 7.77896C10.1649 8.56036 9.10507 8.99935 8 8.99935C6.89493 8.99935 5.83512 8.56036 5.05372 7.77896C4.27232 6.99756 3.83333 5.93775 3.83333 4.83268C3.83333 3.72761 4.27232 2.66781 5.05372 1.8864C5.83512 1.105 6.89493 0.666016 8 0.666016ZM16.3333 7.33268C16.5457 7.33292 16.75 7.41425 16.9045 7.56006C17.0589 7.70586 17.1519 7.90514 17.1643 8.11718C17.1768 8.32921 17.1078 8.538 16.9714 8.70088C16.8351 8.86375 16.6417 8.96843 16.4308 8.99352L16.3333 8.99935H13C12.7876 8.99911 12.5833 8.91778 12.4289 8.77198C12.2744 8.62617 12.1815 8.42689 12.169 8.21485C12.1566 8.00282 12.2256 7.79403 12.3619 7.63116C12.4982 7.46828 12.6916 7.3636 12.9025 7.33852L13 7.33268H16.3333ZM8 2.33268C7.6717 2.33268 7.34661 2.39735 7.04329 2.52298C6.73998 2.64862 6.46438 2.83277 6.23223 3.06492C6.00009 3.29706 5.81594 3.57266 5.6903 3.87597C5.56466 4.17929 5.5 4.50438 5.5 4.83268C5.5 5.16099 5.56466 5.48608 5.6903 5.78939C5.81594 6.0927 6.00009 6.3683 6.23223 6.60045C6.46438 6.8326 6.73998 7.01674 7.04329 7.14238C7.34661 7.26802 7.6717 7.33268 8 7.33268C8.66304 7.33268 9.29893 7.06929 9.76777 6.60045C10.2366 6.13161 10.5 5.49572 10.5 4.83268C10.5 4.16964 10.2366 3.53376 9.76777 3.06492C9.29893 2.59607 8.66304 2.33268 8 2.33268Z"
        fill="#5B5D86"
      />
    </symbol>
    <symbol
      id="reset"
      width="18"
      height="18"
      viewBox="0 0 18 18"
      fill="none"
      xmlns="http://www.w3.org/2000/svg"
    >
      <path
        d="M13.1667 5.87565C13.4429 5.87565 13.7079 5.7659 13.9032 5.57055C14.0986 5.3752 14.2083 5.11025 14.2083 4.83398C14.2083 4.55772 14.0986 4.29276 13.9032 4.09741C13.7079 3.90206 13.4429 3.79232 13.1667 3.79232C12.8904 3.79232 12.6254 3.90206 12.4301 4.09741C12.2347 4.29276 12.125 4.55772 12.125 4.83398C12.125 5.11025 12.2347 5.3752 12.4301 5.57055C12.6254 5.7659 12.8904 5.87565 13.1667 5.87565ZM6.45833 6.16732C6.45922 4.71995 7.03457 3.33211 8.05802 2.30867C9.08146 1.28522 10.4693 0.709867 11.9167 0.708984C14.9133 0.708984 17.375 3.05815 17.375 6.08398C17.3773 7.23808 17.0108 8.36272 16.3292 9.29398C16.004 9.02857 15.6468 8.80514 15.2658 8.62898C15.8233 7.89776 16.1249 7.0035 16.1242 6.08398C16.1242 3.77648 14.2517 1.95898 11.9158 1.95898C10.8 1.95987 9.73009 2.40353 8.94107 3.19255C8.15204 3.98158 7.70838 5.05147 7.7075 6.16732C7.7075 6.38565 7.73583 6.61648 7.78083 6.87148C7.8233 7.10529 7.80866 7.34589 7.73814 7.57281C7.66763 7.79974 7.54333 8.00626 7.37583 8.17482L2.17917 13.3707C2.08244 13.4674 2.00573 13.5823 1.9534 13.7086C1.90106 13.835 1.87414 13.9705 1.87417 14.1073V15.9173C1.87417 16.0323 1.9675 16.1257 2.0825 16.1257H4.16583C4.22109 16.1257 4.27408 16.1037 4.31315 16.0646C4.35222 16.0256 4.37417 15.9726 4.37417 15.9173V14.6673C4.37417 14.0923 4.84083 13.6257 5.41583 13.6257H6.87417V12.1673C6.87417 11.6257 7.28833 11.1798 7.8175 11.1298L8.715 12.0282C8.59243 12.1267 8.48613 12.244 8.4 12.3757H8.125V13.834C8.125 14.409 7.65833 14.8757 7.08333 14.8757H5.625V15.9173C5.625 16.3041 5.47135 16.675 5.19786 16.9485C4.92437 17.222 4.55344 17.3757 4.16667 17.3757H2.08333C1.69656 17.3757 1.32563 17.222 1.05214 16.9485C0.778645 16.675 0.625 16.3041 0.625 15.9173V14.1073C0.625 13.499 0.865833 12.9165 1.29583 12.4873L6.49167 7.29065C6.51672 7.26375 6.53506 7.23131 6.5452 7.19597C6.55534 7.16064 6.55698 7.12341 6.55 7.08732C6.49287 6.78388 6.4622 6.47606 6.45833 6.16732ZM10.4833 8.40065C10.5447 8.34343 10.594 8.27443 10.6282 8.19777C10.6623 8.1211 10.6807 8.03834 10.6822 7.95442C10.6836 7.8705 10.6682 7.78714 10.6368 7.70932C10.6053 7.6315 10.5585 7.5608 10.4992 7.50145C10.4398 7.4421 10.3692 7.39532 10.2913 7.36388C10.2135 7.33245 10.1302 7.31701 10.0462 7.31849C9.96231 7.31997 9.87955 7.33834 9.80289 7.3725C9.72622 7.40666 9.65722 7.45591 9.6 7.51732L7.93333 9.18398C7.81629 9.30117 7.75055 9.46002 7.75055 9.62565C7.75055 9.79128 7.81629 9.95013 7.93333 10.0673L9.6 11.734C9.65722 11.7954 9.72622 11.8446 9.80289 11.8788C9.87955 11.913 9.96231 11.9313 10.0462 11.9328C10.1302 11.9343 10.2135 11.9189 10.2913 11.8874C10.3692 11.856 10.4398 11.8092 10.4992 11.7498C10.5585 11.6905 10.6053 11.6198 10.6368 11.542C10.6682 11.4642 10.6836 11.3808 10.6822 11.2969C10.6807 11.213 10.6623 11.1302 10.6282 11.0535C10.594 10.9769 10.5447 10.9079 10.4833 10.8507L9.88333 10.2507H13.1667C13.7435 10.2507 14.3074 10.4217 14.7871 10.7422C15.2667 11.0627 15.6406 11.5182 15.8613 12.0512C16.0821 12.5841 16.1398 13.1706 16.0273 13.7363C15.9147 14.3021 15.637 14.8218 15.2291 15.2297C14.8212 15.6376 14.3015 15.9154 13.7357 16.0279C13.1699 16.1405 12.5835 16.0827 12.0505 15.862C11.5176 15.6412 11.062 15.2674 10.7415 14.7877C10.4211 14.3081 10.25 13.7442 10.25 13.1673C10.25 13.0016 10.1842 12.8426 10.0669 12.7254C9.94973 12.6082 9.79076 12.5423 9.625 12.5423C9.45924 12.5423 9.30027 12.6082 9.18306 12.7254C9.06585 12.8426 9 13.0016 9 13.1673C9 13.9914 9.24437 14.797 9.70221 15.4822C10.16 16.1674 10.8108 16.7015 11.5722 17.0168C12.3335 17.3322 13.1713 17.4147 13.9795 17.2539C14.7878 17.0932 15.5302 16.6963 16.1129 16.1136C16.6957 15.5309 17.0925 14.7884 17.2533 13.9802C17.414 13.1719 17.3315 12.3342 17.0162 11.5728C16.7008 10.8114 16.1667 10.1607 15.4815 9.70286C14.7963 9.24502 13.9908 9.00065 13.1667 9.00065H9.88333L10.4833 8.40065Z"
        fill="#5B5D86"
      />
    </symbol>
    <symbol
      id="circle-check"
      width="20"
      height="20"
      viewBox="0 0 20 20"
      fill="none"
      xmlns="http://www.w3.org/2000/svg"
    >
      <rect width="20" height="20" rx="10" fill="currentColor" />
      <path
        d="M6.25 10L8.75 12.5L13.75 7.5"
        stroke="white"
        stroke-width="2"
        stroke-linecap="round"
        stroke-linejoin="round"
      />
    </symbol>
    <symbol
      id="bell"
      width="24"
      height="24"
      viewBox="0 0 24 24"
      fill="none"
      xmlns="http://www.w3.org/2000/svg"
    >
      <path
        d="M14.0008 21H10.0008M18.0008 8C18.0008 6.4087 17.3686 4.88258 16.2434 3.75736C15.1182 2.63214 13.5921 2 12.0008 2C10.4095 2 8.88333 2.63214 7.75811 3.75736C6.63289 4.88258 6.00075 6.4087 6.00075 8C6.00075 11.0902 5.22122 13.206 4.35042 14.6054C3.61588 15.7859 3.24861 16.3761 3.26208 16.5408C3.27699 16.7231 3.31561 16.7926 3.46253 16.9016C3.59521 17 4.19334 17 5.38961 17H18.6119C19.8082 17 20.4063 17 20.539 16.9016C20.6859 16.7926 20.7245 16.7231 20.7394 16.5408C20.7529 16.3761 20.3856 15.7859 19.6511 14.6054C18.7803 13.206 18.0008 11.0902 18.0008 8Z"
        stroke="#5B5D86"
        stroke-width="2"
        stroke-linecap="round"
        stroke-linejoin="round"
      />
    </symbol>
    <symbol
      id="arrow-right"
      width="14"
      height="14"
      viewBox="0 0 14 14"
      fill="none"
      xmlns="http://www.w3.org/2000/svg"
    >
      <path
        d="M1.16602 7.00033H12.8327M12.8327 7.00033L6.99935 1.16699M12.8327 7.00033L6.99935 12.8337"
        stroke="white"
        stroke-width="1.5"
        stroke-linecap="round"
        stroke-linejoin="round"
      />
    </symbol>
    <symbol
      id="info"
      width="16"
      height="15"
      viewBox="0 0 16 15"
      fill="none"
      xmlns="http://www.w3.org/2000/svg"
    >
      <path
        d="M7.9987 10.1663V7.49967M7.9987 4.83301H8.00536M14.6654 7.49967C14.6654 11.1816 11.6806 14.1663 7.9987 14.1663C4.3168 14.1663 1.33203 11.1816 1.33203 7.49967C1.33203 3.81778 4.3168 0.833008 7.9987 0.833008C11.6806 0.833008 14.6654 3.81778 14.6654 7.49967Z"
        stroke="#5B5D86"
        stroke-width="1.2"
        stroke-linecap="round"
        stroke-linejoin="round"
      />
    </symbol>
    <symbol
      id="arrow-down"
      width="12"
      height="8"
      viewBox="0 0 12 8"
      fill="none"
      xmlns="http://www.w3.org/2000/svg"
    >
      <path
        d="M1 1.5L6 6.5L11 1.5"
        stroke="#8B8CA5"
        stroke-width="1.5"
        stroke-linecap="round"
        stroke-linejoin="round"
      />
    </symbol>
    <symbol
      id="plus-round"
      width="18"
      height="18"
      viewBox="0 0 18 18"
      fill="none"
      xmlns="http://www.w3.org/2000/svg"
    >
      <path
        fill-rule="evenodd"
        clip-rule="evenodd"
        d="M0.667969 8.99935C0.667969 4.39685 4.3988 0.666016 9.0013 0.666016C13.6038 0.666016 17.3346 4.39685 17.3346 8.99935C17.3346 13.6018 13.6038 17.3327 9.0013 17.3327C4.3988 17.3327 0.667969 13.6018 0.667969 8.99935ZM9.0013 2.33268C7.23319 2.33268 5.5375 3.03506 4.28726 4.2853C3.03701 5.53555 2.33464 7.23124 2.33464 8.99935C2.33464 10.7675 3.03701 12.4632 4.28726 13.7134C5.5375 14.9636 7.23319 15.666 9.0013 15.666C10.7694 15.666 12.4651 14.9636 13.7153 13.7134C14.9656 12.4632 15.668 10.7675 15.668 8.99935C15.668 7.23124 14.9656 5.53555 13.7153 4.2853C12.4651 3.03506 10.7694 2.33268 9.0013 2.33268Z"
        fill="#8B8CA5"
      />
      <path
        fill-rule="evenodd"
        clip-rule="evenodd"
        d="M9.83463 4.83268C9.83463 4.61167 9.74684 4.39971 9.59056 4.24343C9.43428 4.08715 9.22232 3.99935 9.0013 3.99935C8.78029 3.99935 8.56833 4.08715 8.41205 4.24343C8.25577 4.39971 8.16797 4.61167 8.16797 4.83268V8.16602H4.83464C4.61362 8.16602 4.40166 8.25381 4.24538 8.41009C4.0891 8.56637 4.0013 8.77833 4.0013 8.99935C4.0013 9.22036 4.0891 9.43232 4.24538 9.5886C4.40166 9.74488 4.61362 9.83268 4.83464 9.83268H8.16797V13.166C8.16797 13.387 8.25577 13.599 8.41205 13.7553C8.56833 13.9116 8.78029 13.9993 9.0013 13.9993C9.22232 13.9993 9.43428 13.9116 9.59056 13.7553C9.74684 13.599 9.83463 13.387 9.83463 13.166V9.83268H13.168C13.389 9.83268 13.6009 9.74488 13.7572 9.5886C13.9135 9.43232 14.0013 9.22036 14.0013 8.99935C14.0013 8.77833 13.9135 8.56637 13.7572 8.41009C13.6009 8.25381 13.389 8.16602 13.168 8.16602H9.83463V4.83268Z"
        fill="#8B8CA5"
      />
    </symbol>
    <symbol
      id="hub-spoke"
      width="11"
      height="13"
      viewBox="0 0 11 13"
      fill="none"
      xmlns="http://www.w3.org/2000/svg"
    >
      <path
        d="M5.75 0.75L10.9462 3.75V9.75L5.75 12.75L0.553848 9.75V3.75L5.75 0.75Z"
        fill="var(--currentColor)"
      />
    </symbol>
    <symbol
      id="node"
      width="12"
      height="12"
      viewBox="0 0 12 12"
      fill="none"
      xmlns="http://www.w3.org/2000/svg"
    >
      <circle cx="6" cy="6" r="6" fill="var(--currentColor)" />
    </symbol>
    <symbol
      id="trusted-region"
      width="12"
      height="12"
      viewBox="0 0 12 12"
      fill="none"
      xmlns="http://www.w3.org/2000/svg"
    >
      <rect width="12" height="12" fill="var(--currentColor)" />
    </symbol>
    <symbol
      id="fingerprint"
      width="112"
      height="124"
      viewBox="0 0 112 124"
      fill="var(--currentColor)"
      xmlns="http://www.w3.org/2000/svg"
    >
      <path
        d="M55.8183 15.2172C66.7805 15.2172 77.1222 17.5732 86.8434 22.2854C96.5646 26.9975 104.683 33.8028 111.198 42.7013C111.922 43.6329 112.156 44.4611 111.899 45.1857C111.643 45.9103 111.202 46.5314 110.578 47.049C109.953 47.5666 109.229 47.8006 108.406 47.7509C107.583 47.7012 106.859 47.2602 106.234 46.4279C100.546 38.3535 93.2305 32.1693 84.287 27.8754C75.3434 23.5814 65.8539 21.4324 55.8183 21.4283C45.7826 21.4241 36.3717 23.5732 27.5853 27.8754C18.799 32.1776 11.5081 38.3618 5.7126 46.4279C5.0921 47.3596 4.36818 47.8772 3.54084 47.9807C2.7135 48.0842 1.98958 47.8772 1.36908 47.3596C0.64516 46.842 0.204602 46.196 0.0474077 45.4217C-0.109787 44.6474 0.123937 43.8441 0.748578 43.0118C7.16045 34.2128 15.2022 27.3806 24.8738 22.5152C34.5453 17.6499 44.8602 15.2172 55.8183 15.2172ZM55.8183 29.8132C69.7796 29.8132 81.776 34.4716 91.8075 43.7882C101.839 53.1048 106.855 64.6471 106.855 78.415C106.855 83.5909 105.02 87.9139 101.351 91.3838C97.6816 94.8537 93.2077 96.5866 87.9293 96.5825C82.6509 96.5783 78.1274 94.8454 74.3589 91.3838C70.5904 87.9221 68.702 83.5992 68.6937 78.415C68.6937 74.9989 67.4279 72.1253 64.8962 69.794C62.3646 67.4628 59.3386 66.2993 55.8183 66.3034C52.2979 66.3075 49.2719 67.4732 46.7403 69.8002C44.2086 72.1273 42.9428 74.9989 42.9428 78.415C42.9428 88.4563 45.9171 96.8413 51.8656 103.57C57.8142 110.299 65.4919 115.009 74.8987 117.7C75.8295 118.011 76.45 118.528 76.7602 119.253C77.0705 119.978 77.1222 120.754 76.9154 121.582C76.7085 122.307 76.2949 122.928 75.6744 123.445C75.0539 123.963 74.2782 124.118 73.3475 123.911C62.5921 121.22 53.8016 115.862 46.9761 107.837C40.1505 99.8122 36.7378 90.0049 36.7378 78.415C36.7378 73.2391 38.5993 68.8914 42.3223 65.3717C46.0453 61.8521 50.544 60.0923 55.8183 60.0923C61.0925 60.0923 65.5912 61.8521 69.3142 65.3717C73.0372 68.8914 74.8987 73.2391 74.8987 78.415C74.8987 81.8311 76.1915 84.7048 78.7769 87.036C81.3623 89.3673 84.4131 90.5308 87.9293 90.5267C91.4455 90.5225 94.4446 89.359 96.9266 87.036C99.4086 84.7131 100.65 81.8394 100.65 78.415C100.65 66.4069 96.2544 56.3139 87.4639 48.136C78.6735 39.958 68.1766 35.8691 55.9734 35.8691C43.7701 35.8691 33.2733 39.958 24.4828 48.136C15.6924 56.3139 11.2971 66.3552 11.2971 78.2598C11.2971 80.7442 11.5309 83.8497 11.9983 87.5764C12.4657 91.303 13.5765 95.6508 15.3304 100.62C15.6407 101.551 15.6158 102.379 15.2559 103.104C14.8961 103.829 14.3004 104.346 13.4689 104.657C12.6374 104.967 11.837 104.943 11.0676 104.582C10.2981 104.222 9.75415 103.626 9.43563 102.794C7.88437 98.7564 6.77366 94.7461 6.10352 90.7627C5.43338 86.7793 5.09624 82.6634 5.0921 78.415C5.0921 64.6471 10.083 53.1048 20.0648 43.7882C30.0467 34.4716 41.9645 29.8132 55.8183 29.8132ZM55.8183 0C62.437 0 68.9005 0.80123 75.209 2.40369C81.5174 4.00615 87.6191 6.31047 93.5138 9.31664C94.4446 9.83423 94.9886 10.4553 95.1458 11.18C95.303 11.9046 95.2244 12.6292 94.91 13.3538C94.5956 14.0785 94.0785 14.6478 93.3587 15.0619C92.6389 15.476 91.7599 15.4242 90.7216 14.9066C85.2405 12.1116 79.5773 9.96466 73.7322 8.46572C67.887 6.96677 61.9157 6.21523 55.8183 6.21109C49.8201 6.21109 43.9253 6.91087 38.1339 8.31044C32.3425 9.71001 26.8097 11.9087 21.5354 14.9066C20.7081 15.4242 19.8808 15.5546 19.0534 15.2979C18.2261 15.0412 17.6056 14.4967 17.1919 13.6644C16.7782 12.8321 16.6748 12.0826 16.8817 11.416C17.0885 10.7493 17.6056 10.1531 18.4329 9.62719C24.2243 6.52165 30.2742 4.14073 36.5826 2.48444C42.8911 0.828145 49.303 0 55.8183 0ZM55.8183 44.8751C65.4361 44.8751 73.7094 48.1111 80.6384 54.5831C87.5673 61.055 91.0318 68.999 91.0318 78.415C91.0318 79.3467 90.7485 80.0982 90.1817 80.6696C89.615 81.2411 88.8642 81.5247 87.9293 81.5206C87.102 81.5206 86.3781 81.2369 85.7575 80.6696C85.137 80.1024 84.8268 79.3508 84.8268 78.415C84.8268 70.6512 81.9559 64.1564 76.2142 58.9308C70.4725 53.7052 63.6738 51.0904 55.8183 51.0862C47.9627 51.0821 41.2157 53.6969 35.5774 58.9308C29.9391 64.1647 27.12 70.6594 27.12 78.415C27.12 86.8 28.5678 93.9179 31.4635 99.7688C34.3592 105.62 38.5993 111.493 44.1838 117.39C44.8043 118.011 45.1146 118.735 45.1146 119.564C45.1146 120.392 44.8043 121.116 44.1838 121.737C43.5633 122.359 42.8394 122.669 42.0121 122.669C41.1847 122.669 40.4608 122.359 39.8403 121.737C33.7387 115.319 29.0601 108.773 25.8045 102.098C22.5489 95.4231 20.9191 87.5288 20.9149 78.415C20.9149 68.9949 24.3277 61.0488 31.1532 54.5769C37.9788 48.1049 46.2005 44.871 55.8183 44.8751ZM55.6631 75.3095C56.5939 75.3095 57.3447 75.62 57.9156 76.2411C58.4864 76.8623 58.7698 77.5869 58.7656 78.415C58.7656 86.1789 61.5579 92.5453 67.1424 97.5141C72.727 102.483 79.2423 104.967 86.6883 104.967C87.3088 104.967 88.1878 104.916 89.3254 104.812C90.463 104.709 91.6523 104.553 92.8933 104.346C93.8241 104.139 94.6266 104.27 95.3009 104.738C95.9752 105.206 96.4137 105.903 96.6164 106.831C96.8232 107.659 96.6681 108.384 96.151 109.005C95.6339 109.626 94.9617 110.04 94.1343 110.247C92.2728 110.764 90.645 111.05 89.251 111.104C87.8569 111.158 87.0027 111.183 86.6883 111.179C77.4842 111.179 69.4941 108.073 62.7183 101.862C55.9424 95.6508 52.5565 87.8352 52.5606 78.415C52.5606 77.5869 52.846 76.8623 53.4169 76.2411C53.9878 75.62 54.7365 75.3095 55.6631 75.3095Z"
      />
    </symbol>
    <symbol
      id="eye"
      width="18"
      height="14"
      viewBox="0 0 18 14"
      fill="none"
      xmlns="http://www.w3.org/2000/svg"
    >
      <path
        d="M17.4018 6.49609C15.5503 2.5957 12.7515 0.632812 8.9995 0.632812C5.2456 0.632812 2.44872 2.5957 0.597159 6.49805C0.522892 6.65531 0.484375 6.82706 0.484375 7.00098C0.484375 7.17489 0.522892 7.34665 0.597159 7.50391C2.44872 11.4043 5.24755 13.3672 8.9995 13.3672C12.7534 13.3672 15.5503 11.4043 17.4018 7.50195C17.5522 7.18555 17.5522 6.81836 17.4018 6.49609ZM8.9995 11.9609C5.84911 11.9609 3.54247 10.3633 1.91552 7C3.54247 3.63672 5.84911 2.03906 8.9995 2.03906C12.1499 2.03906 14.4565 3.63672 16.0835 7C14.4585 10.3633 12.1518 11.9609 8.9995 11.9609ZM8.92138 3.5625C7.02294 3.5625 5.48388 5.10156 5.48388 7C5.48388 8.89844 7.02294 10.4375 8.92138 10.4375C10.8198 10.4375 12.3589 8.89844 12.3589 7C12.3589 5.10156 10.8198 3.5625 8.92138 3.5625ZM8.92138 9.1875C7.71239 9.1875 6.73388 8.20898 6.73388 7C6.73388 5.79102 7.71239 4.8125 8.92138 4.8125C10.1304 4.8125 11.1089 5.79102 11.1089 7C11.1089 8.20898 10.1304 9.1875 8.92138 9.1875Z"
        fill="#5B5D86"
      />
    </symbol>
    <symbol
      id="eye-cross"
      width="20"
      height="16"
      viewBox="0 0 20 16"
      fill="none"
      xmlns="http://www.w3.org/2000/svg"
    >
      <path
        d="M8.94199 2.22685C9.29329 2.1861 9.64667 2.16579 10.0003 2.16602C13.887 2.16602 17.0003 4.58518 18.3337 7.99935C18.0109 8.82984 17.5748 9.61169 17.0378 10.3227M5.43366 3.43185C3.73366 4.46935 2.41699 6.07685 1.66699 7.99935C3.00033 11.4135 6.11366 13.8327 10.0003 13.8327C11.6104 13.8412 13.1913 13.4027 14.567 12.566M8.23366 6.23268C8.00149 6.46485 7.81733 6.74047 7.69168 7.04381C7.56603 7.34715 7.50136 7.67227 7.50136 8.0006C7.50136 8.32893 7.56603 8.65405 7.69168 8.95739C7.81733 9.26073 8.00149 9.53635 8.23366 9.76852C8.46582 10.0007 8.74145 10.1848 9.04479 10.3105C9.34813 10.4361 9.67324 10.5008 10.0016 10.5008C10.3299 10.5008 10.655 10.4361 10.9584 10.3105C11.2617 10.1848 11.5373 10.0007 11.7695 9.76852"
        stroke="#5B5D86"
        stroke-width="1.5"
        stroke-linecap="round"
        stroke-linejoin="round"
      />
      <path
        d="M3.33398 1.33301L16.6673 14.6663"
        stroke="#5B5D86"
        stroke-width="1.66667"
        stroke-linecap="round"
      />
    </symbol>
    <symbol
      id="auth-success"
      width="124"
      height="124"
      viewBox="0 0 124 124"
      fill="none"
      xmlns="http://www.w3.org/2000/svg"
    >
      <g clip-path="url(#clip0_304_90909)">
        <path
          opacity="0.16"
          d="M61.9983 123.997C96.2391 123.997 123.997 96.2391 123.997 61.9983C123.997 27.7576 96.2391 0 61.9983 0C27.7576 0 0 27.7576 0 61.9983C0 96.2391 27.7576 123.997 61.9983 123.997Z"
          fill="#73E2A7"
        />
        <path
          d="M61.9982 96.9495C81.3013 96.9495 96.9495 81.3013 96.9495 61.9982C96.9495 42.6951 81.3013 27.0469 61.9982 27.0469C42.6951 27.0469 27.0469 42.6951 27.0469 61.9982C27.0469 81.3013 42.6951 96.9495 61.9982 96.9495Z"
          fill="#3BCC84"
          stroke="white"
          stroke-width="5"
          stroke-miterlimit="10"
        />
        <path
          d="M74.9108 53.2021L57.3115 70.7981L49.0898 62.5764"
          stroke="white"
          stroke-width="5"
          stroke-linecap="round"
          stroke-linejoin="round"
        />
        <path
          d="M8.31887 37.3766C8.23869 36.538 7.91463 34.0057 6.30103 31.7808C4.58387 29.4188 2.54599 28.9778 1.95801 28.881C2.5226 28.7941 4.75425 28.5736 6.49814 26.1114C8.05829 23.9065 8.24871 21.2272 8.31887 20.3887C8.3055 21.0669 8.32221 23.686 9.83224 25.9611C11.7766 28.8876 14.6296 28.891 15.0338 28.8843C14.4425 28.9578 11.9937 29.342 10.1396 31.9912C8.63958 34.1327 8.379 36.5414 8.31553 37.3799L8.31887 37.3766Z"
          fill="#73E2A7"
        />
        <path
          d="M106.527 120.676C106.484 120.208 106.3 118.792 105.398 117.549C104.439 116.229 103.3 115.982 102.973 115.928C103.29 115.882 104.536 115.755 105.508 114.382C106.38 113.149 106.487 111.652 106.527 111.185C106.521 111.562 106.527 113.029 107.372 114.298C108.458 115.932 110.052 115.935 110.279 115.932C109.948 115.972 108.582 116.189 107.543 117.666C106.704 118.862 106.557 120.208 106.524 120.676H106.527Z"
          fill="#73E2A7"
        />
        <path
          d="M14.9869 15.5711C14.9635 15.3306 14.87 14.609 14.4123 13.9742C13.9212 13.2994 13.3399 13.1758 13.1729 13.1457C13.3332 13.1223 13.9713 13.0588 14.4691 12.3573C14.9134 11.7292 14.9669 10.9642 14.9869 10.7236C14.9836 10.9174 14.9869 11.6657 15.4179 12.3138C15.9724 13.149 16.7876 13.149 16.9012 13.1457C16.7308 13.1657 16.0359 13.276 15.5047 14.031C15.0771 14.6424 15.0036 15.3306 14.9836 15.5678L14.9869 15.5711Z"
          fill="#73E2A7"
        />
      </g>
      <defs>
        <clipPath id="clip0_304_90909">
          <rect width="124" height="124" fill="white" />
        </clipPath>
      </defs>
    </symbol>
    <symbol
      id="back-arrow-line"
      width="16"
      height="16"
      viewBox="0 0 16 16"
      fill="none"
      xmlns="http://www.w3.org/2000/svg"
    >
      <path
        d="M15 8L0.999999 8M0.999999 8L8 15M0.999999 8L8 0.999998"
        stroke="#5B5D86"
        stroke-width="2"
        stroke-linecap="round"
        stroke-linejoin="round"
      />
    </symbol>
    <symbol
      id="edit"
      width="19"
      height="19"
      viewBox="0 0 19 19"
      fill="none"
      xmlns="http://www.w3.org/2000/svg"
    >
      <path
        d="M9 2.49824H3.16667C2.72464 2.49824 2.30072 2.67383 1.98816 2.98639C1.67559 3.29895 1.5 3.72287 1.5 4.1649V15.8316C1.5 16.2736 1.67559 16.6975 1.98816 17.0101C2.30072 17.3226 2.72464 17.4982 3.16667 17.4982H14.8333C15.2754 17.4982 15.6993 17.3226 16.0118 17.0101C16.3244 16.6975 16.5 16.2736 16.5 15.8316V9.99824M14.3125 2.18574C14.644 1.85421 15.0937 1.66797 15.5625 1.66797C16.0313 1.66797 16.481 1.85421 16.8125 2.18574C17.144 2.51726 17.3303 2.96689 17.3303 3.43574C17.3303 3.90458 17.144 4.35421 16.8125 4.68574L9.30167 12.1974C9.10379 12.3951 8.85934 12.5398 8.59083 12.6182L6.19667 13.3182C6.12496 13.3391 6.04895 13.3404 5.97659 13.3219C5.90423 13.3033 5.83819 13.2657 5.78537 13.2129C5.73255 13.16 5.69491 13.094 5.67637 13.0216C5.65783 12.9493 5.65908 12.8733 5.68 12.8016L6.38 10.4074C6.45877 10.1391 6.60378 9.89495 6.80167 9.6974L14.3125 2.18574Z"
        stroke="#5B5D86"
        stroke-width="1.5"
        stroke-linecap="round"
        stroke-linejoin="round"
      />
    </symbol>
    <symbol
      id="calendar"
      width="18"
      height="18"
      viewBox="0 0 18 18"
      fill="none"
      xmlns="http://www.w3.org/2000/svg"
    >
      <path
        d="M4.0013 8.16797C4.0013 7.94695 4.0891 7.73499 4.24538 7.57871C4.40166 7.42243 4.61362 7.33464 4.83464 7.33464C5.05565 7.33464 5.26761 7.42243 5.42389 7.57871C5.58017 7.73499 5.66797 7.94695 5.66797 8.16797C5.66797 8.38898 5.58017 8.60094 5.42389 8.75722C5.26761 8.9135 5.05565 9.0013 4.83464 9.0013C4.61362 9.0013 4.40166 8.9135 4.24538 8.75722C4.0891 8.60094 4.0013 8.38898 4.0013 8.16797ZM4.83464 10.668C4.61362 10.668 4.40166 10.7558 4.24538 10.912C4.0891 11.0683 4.0013 11.2803 4.0013 11.5013C4.0013 11.7223 4.0891 11.9343 4.24538 12.0906C4.40166 12.2468 4.61362 12.3346 4.83464 12.3346C5.05565 12.3346 5.26761 12.2468 5.42389 12.0906C5.58017 11.9343 5.66797 11.7223 5.66797 11.5013C5.66797 11.2803 5.58017 11.0683 5.42389 10.912C5.26761 10.7558 5.05565 10.668 4.83464 10.668ZM7.33464 8.16797C7.33464 7.94695 7.42243 7.73499 7.57871 7.57871C7.73499 7.42243 7.94695 7.33464 8.16797 7.33464C8.38898 7.33464 8.60094 7.42243 8.75722 7.57871C8.9135 7.73499 9.0013 7.94695 9.0013 8.16797C9.0013 8.38898 8.9135 8.60094 8.75722 8.75722C8.60094 8.9135 8.38898 9.0013 8.16797 9.0013C7.94695 9.0013 7.73499 8.9135 7.57871 8.75722C7.42243 8.60094 7.33464 8.38898 7.33464 8.16797ZM8.16797 10.668C7.94695 10.668 7.73499 10.7558 7.57871 10.912C7.42243 11.0683 7.33464 11.2803 7.33464 11.5013C7.33464 11.7223 7.42243 11.9343 7.57871 12.0906C7.73499 12.2468 7.94695 12.3346 8.16797 12.3346C8.38898 12.3346 8.60094 12.2468 8.75722 12.0906C8.9135 11.9343 9.0013 11.7223 9.0013 11.5013C9.0013 11.2803 8.9135 11.0683 8.75722 10.912C8.60094 10.7558 8.38898 10.668 8.16797 10.668ZM10.668 8.16797C10.668 7.94695 10.7558 7.73499 10.912 7.57871C11.0683 7.42243 11.2803 7.33464 11.5013 7.33464C11.7223 7.33464 11.9343 7.42243 12.0906 7.57871C12.2468 7.73499 12.3346 7.94695 12.3346 8.16797C12.3346 8.38898 12.2468 8.60094 12.0906 8.75722C11.9343 8.9135 11.7223 9.0013 11.5013 9.0013C11.2803 9.0013 11.0683 8.9135 10.912 8.75722C10.7558 8.60094 10.668 8.38898 10.668 8.16797ZM0.667969 4.83464C0.667969 3.72957 1.10696 2.66976 1.88836 1.88836C2.66976 1.10696 3.72957 0.667969 4.83464 0.667969H13.168C14.273 0.667969 15.3328 1.10696 16.1142 1.88836C16.8956 2.66976 17.3346 3.72957 17.3346 4.83464V13.168C17.3346 14.273 16.8956 15.3328 16.1142 16.1142C15.3328 16.8956 14.273 17.3346 13.168 17.3346H4.83464C3.72957 17.3346 2.66976 16.8956 1.88836 16.1142C1.10696 15.3328 0.667969 14.273 0.667969 13.168V4.83464ZM4.83464 2.33464C4.31743 2.33436 3.81286 2.49451 3.39048 2.79302C2.96811 3.09152 2.64871 3.51367 2.4763 4.0013H15.5263C15.3539 3.51367 15.0345 3.09152 14.6121 2.79302C14.1897 2.49451 13.6852 2.33436 13.168 2.33464H4.83464ZM15.668 5.66797H2.33464V13.168C2.33464 13.831 2.59803 14.4669 3.06687 14.9357C3.53571 15.4046 4.17159 15.668 4.83464 15.668H13.168C13.831 15.668 14.4669 15.4046 14.9357 14.9357C15.4046 14.4669 15.668 13.831 15.668 13.168V5.66797Z"
        fill="#5B5D86"
      />
    </symbol>
    <symbol
      id="upload"
      width="14"
      height="17"
      viewBox="0 0 14 17"
      fill="none"
      xmlns="http://www.w3.org/2000/svg"
    >
      <path
        d="M1.6875 1.4375H12.9375M2.3125 9.5625L7.3125 5.1875M7.3125 5.1875L12.3125 9.5625M7.3125 5.1875V15.8125"
        stroke="#5C47D0"
        stroke-width="1.5"
        stroke-linecap="round"
        stroke-linejoin="round"
      />
    </symbol>
    <symbol
      id="img-placeholder"
      width="99"
      height="99"
      viewBox="0 0 99 99"
      fill="none"
      xmlns="http://www.w3.org/2000/svg"
    >
      <path
        fill-rule="evenodd"
        clip-rule="evenodd"
        d="M49.5 16.5C43.7282 16.4989 38.057 18.0118 33.0525 20.8875C28.048 23.7632 23.8853 27.9012 20.9799 32.8884C18.0744 37.8757 16.5279 43.5378 16.4945 49.3096C16.4612 55.0813 17.9424 60.7609 20.79 65.7814C22.7148 63.2799 25.1891 61.2545 28.0215 59.8619C30.854 58.4693 33.9688 57.7467 37.125 57.75H61.875C65.0313 57.7467 68.1461 58.4693 70.9786 59.8619C73.811 61.2545 76.2853 63.2799 78.21 65.7814C81.0577 60.7609 82.5389 55.0813 82.5055 49.3096C82.4722 43.5378 80.9257 37.8757 78.0202 32.8884C75.1148 27.9012 70.9521 23.7632 65.9476 20.8875C60.9431 18.0118 55.2719 16.4989 49.5 16.5ZM82.2649 74.5635C87.7802 67.3735 90.7634 58.5617 90.75 49.5C90.75 26.7176 72.2824 8.25 49.5 8.25C26.7177 8.25 8.25005 26.7176 8.25005 49.5C8.23643 58.5617 11.2197 67.3736 16.7352 74.5635L16.7145 74.6377L18.1789 76.3414C22.0477 80.8645 26.8513 84.4949 32.2585 86.9824C37.6658 89.4699 43.5481 90.7553 49.5 90.75C57.8628 90.7654 66.0306 88.2251 72.9094 83.4694C75.842 81.4432 78.5012 79.0475 80.8212 76.3414L82.2855 74.6377L82.2649 74.5635ZM49.5 24.75C46.218 24.75 43.0704 26.0538 40.7496 28.3746C38.4288 30.6953 37.125 33.8429 37.125 37.125C37.125 40.4071 38.4288 43.5547 40.7496 45.8754C43.0704 48.1962 46.218 49.5 49.5 49.5C52.7821 49.5 55.9297 48.1962 58.2505 45.8754C60.5713 43.5547 61.875 40.4071 61.875 37.125C61.875 33.8429 60.5713 30.6953 58.2505 28.3746C55.9297 26.0538 52.7821 24.75 49.5 24.75Z"
        fill="#E4E7FB"
      />
    </symbol>
    <symbol
      id="settings-cross"
      width="20"
      height="20"
      viewBox="0 0 20 20"
      fill="none"
      xmlns="http://www.w3.org/2000/svg"
    >
      <g clip-path="url(#clip0_506_127662)">
        <mask
          id="mask0_506_127662"
          style="mask-type: luminance"
          maskUnits="userSpaceOnUse"
          x="0"
          y="0"
          width="20"
          height="20"
        >
          <path
            d="M10.0013 18.3346C14.6038 18.3346 18.3346 14.6038 18.3346 10.0013C18.3346 5.3988 14.6038 1.66797 10.0013 1.66797C5.3988 1.66797 1.66797 5.3988 1.66797 10.0013C1.66797 14.6038 5.3988 18.3346 10.0013 18.3346Z"
            fill="white"
            stroke="white"
            stroke-width="1.66667"
            stroke-linejoin="round"
          />
          <path
            d="M12.3587 7.64453L7.64453 12.3587M7.64453 7.64453L12.3587 12.3587"
            stroke="black"
            stroke-width="1.66667"
            stroke-linecap="round"
            stroke-linejoin="round"
          />
        </mask>
        <g mask="url(#mask0_506_127662)">
          <path d="M0 0H20V20H0V0Z" fill="#5B5D86" />
        </g>
      </g>
      <defs>
        <clipPath id="clip0_506_127662">
          <rect width="20" height="20" fill="white" />
        </clipPath>
      </defs>
    </symbol>

    <symbol
      id="link"
      width="12"
      height="12"
      viewBox="0 0 12 12"
      fill="none"
      xmlns="http://www.w3.org/2000/svg"
    >
      <path
        d="M10.2 12C9.7 12 9.275 11.825 8.925 11.475C8.575 11.125 8.4 10.7 8.4 10.2C8.4 10.06 8.415 9.925 8.445 9.795C8.475 9.665 8.52 9.54 8.58 9.42L2.58 3.42C2.46 3.48 2.335 3.525 2.205 3.555C2.075 3.585 1.94 3.6 1.8 3.6C1.3 3.6 0.875 3.425 0.525 3.075C0.175 2.725 0 2.3 0 1.8C0 1.3 0.175 0.875 0.525 0.525C0.875 0.175 1.3 0 1.8 0C2.3 0 2.725 0.175 3.075 0.525C3.425 0.875 3.6 1.3 3.6 1.8C3.6 1.94 3.585 2.075 3.555 2.205C3.525 2.335 3.48 2.46 3.42 2.58L9.42 8.58C9.54 8.52 9.665 8.475 9.795 8.445C9.925 8.415 10.06 8.4 10.2 8.4C10.7 8.4 11.125 8.575 11.475 8.925C11.825 9.275 12 9.7 12 10.2C12 10.7 11.825 11.125 11.475 11.475C11.125 11.825 10.7 12 10.2 12Z"
        fill="#5B5D86"
      />
    </symbol>
    <symbol
      id="app"
      width="12"
      height="12"
      viewBox="0 0 12 12"
      fill="none"
      xmlns="http://www.w3.org/2000/svg"
    >
      <path d="M0 0H5.53846V5.53846H0V0Z" fill="#5B5D86" />
      <path d="M6.46154 0H12V5.53846H6.46154V0Z" fill="#5B5D86" />
      <path d="M0 6.46154H5.53846V12H0V6.46154Z" fill="#5B5D86" />
      <path d="M6.46154 6.46154H12V12H6.46154V6.46154Z" fill="#5B5D86" />
    </symbol>
    <symbol
      id="trusted-region-connect"
      width="13"
      height="62"
      viewBox="0 0 13 62"
      fill="none"
      xmlns="http://www.w3.org/2000/svg"
    >
      <path
        d="M13 1L5 1C2.79086 1 1 2.79086 1 5L1 57C1 59.2091 2.79086 61 5 61L13 61"
        stroke="#5B5D86"
        stroke-dasharray="8 8"
      />
    </symbol>
    <symbol
      id="device"
      width="20"
      height="12"
      viewBox="0 0 20 12"
      fill="none"
      xmlns="http://www.w3.org/2000/svg"
    >
      <path
        d="M19.0061 1.96937C19.0061 1.49323 18.6222 1.10938 18.1461 1.10938H1.85609C1.37995 1.10938 0.996094 1.49323 0.996094 1.96937V10.0294C0.996094 10.5055 1.37995 10.8894 1.85609 10.8894H18.1461C18.6222 10.8894 19.0061 10.5055 19.0061 10.0294V1.96937ZM1.85609 0.609375H18.1461C18.9 0.609375 19.5061 1.21552 19.5061 1.96937V10.0294C19.5061 10.7832 18.9 11.3894 18.1461 11.3894H1.85609C1.10224 11.3894 0.496094 10.7832 0.496094 10.0294V1.96937C0.496094 1.21552 1.10224 0.609375 1.85609 0.609375Z"
        fill="white"
        stroke="#35354F"
      />
      <path
        d="M3.49609 8.25H6.57609"
        stroke="#35354F"
        stroke-width="1.5"
        stroke-miterlimit="10"
        stroke-linecap="round"
      />
    </symbol>
  </defs>
</svg>
